<svg width="88" height="36" viewBox="0 0 88 36" fill="none" xmlns="http://www.w3.org/2000/svg">
<path d="M35.14 17V8.168H37.78C38.668 8.168 39.424 8.3 40.048 8.564C40.672 8.828 41.172 9.18 41.548 9.62C41.932 10.06 42.212 10.552 42.388 11.096C42.564 11.64 42.652 12.188 42.652 12.74C42.652 13.396 42.532 13.988 42.292 14.516C42.06 15.036 41.74 15.484 41.332 15.86C40.924 16.228 40.452 16.512 39.916 16.712C39.38 16.904 38.812 17 38.212 17H35.14ZM36.88 15.32H37.912C38.352 15.32 38.752 15.264 39.112 15.152C39.472 15.032 39.78 14.86 40.036 14.636C40.3 14.412 40.5 14.132 40.636 13.796C40.78 13.452 40.852 13.06 40.852 12.62C40.852 12.044 40.756 11.576 40.564 11.216C40.38 10.848 40.148 10.564 39.868 10.364C39.596 10.164 39.316 10.028 39.028 9.956C38.74 9.876 38.496 9.836 38.296 9.836H36.88V15.32ZM46.3298 17.144C45.8418 17.144 45.3978 17.048 44.9978 16.856C44.6058 16.656 44.2938 16.352 44.0618 15.944C43.8298 15.536 43.7138 15.016 43.7138 14.384C43.7138 13.792 43.8338 13.28 44.0738 12.848C44.3138 12.416 44.6298 12.084 45.0218 11.852C45.4138 11.612 45.8298 11.492 46.2698 11.492C46.7898 11.492 47.1818 11.58 47.4458 11.756C47.7178 11.924 47.9418 12.112 48.1178 12.32L48.0458 12.524L48.2018 11.756H49.7618V17H48.0818V15.86L48.2138 16.22C48.1978 16.22 48.1498 16.268 48.0698 16.364C47.9898 16.452 47.8698 16.56 47.7098 16.688C47.5578 16.808 47.3658 16.912 47.1338 17C46.9098 17.096 46.6418 17.144 46.3298 17.144ZM46.8098 15.776C47.0098 15.776 47.1898 15.748 47.3498 15.692C47.5098 15.628 47.6498 15.54 47.7698 15.428C47.8898 15.308 47.9938 15.16 48.0818 14.984V13.7C48.0178 13.524 47.9218 13.376 47.7938 13.256C47.6658 13.128 47.5138 13.032 47.3378 12.968C47.1618 12.896 46.9658 12.86 46.7498 12.86C46.5098 12.86 46.2858 12.924 46.0778 13.052C45.8778 13.172 45.7178 13.34 45.5978 13.556C45.4778 13.772 45.4178 14.02 45.4178 14.3C45.4178 14.58 45.4818 14.832 45.6098 15.056C45.7378 15.28 45.9058 15.456 46.1138 15.584C46.3298 15.712 46.5618 15.776 46.8098 15.776ZM53.1969 17.108C52.7649 17.108 52.3609 17.032 51.9849 16.88C51.6169 16.728 51.3049 16.516 51.0489 16.244L51.7449 15.32C52.0009 15.552 52.2369 15.72 52.4529 15.824C52.6769 15.92 52.8769 15.968 53.0529 15.968C53.1889 15.968 53.3089 15.956 53.4129 15.932C53.5249 15.9 53.6129 15.856 53.6769 15.8C53.7409 15.736 53.7729 15.656 53.7729 15.56C53.7729 15.424 53.7169 15.316 53.6049 15.236C53.5009 15.156 53.3649 15.092 53.1969 15.044C53.0289 14.988 52.8489 14.932 52.6569 14.876C52.1769 14.724 51.8289 14.504 51.6129 14.216C51.4049 13.92 51.3009 13.6 51.3009 13.256C51.3009 12.992 51.3689 12.728 51.5049 12.464C51.6489 12.192 51.8729 11.968 52.1769 11.792C52.4889 11.608 52.8889 11.516 53.3769 11.516C53.8169 11.516 54.1889 11.56 54.4929 11.648C54.7969 11.736 55.0849 11.88 55.3569 12.08L54.7209 13.064C54.5689 12.944 54.3969 12.844 54.2049 12.764C54.0209 12.676 53.8489 12.628 53.6889 12.62C53.5449 12.612 53.4209 12.628 53.3169 12.668C53.2209 12.708 53.1449 12.76 53.0889 12.824C53.0329 12.888 53.0049 12.956 53.0049 13.028C52.9969 13.18 53.0529 13.3 53.1729 13.388C53.3009 13.476 53.4609 13.544 53.6529 13.592C53.8449 13.64 54.0329 13.696 54.2169 13.76C54.4729 13.84 54.6929 13.948 54.8769 14.084C55.0609 14.22 55.2009 14.384 55.2969 14.576C55.4009 14.76 55.4529 14.984 55.4529 15.248C55.4529 15.568 55.3689 15.872 55.2009 16.16C55.0409 16.44 54.7929 16.668 54.4569 16.844C54.1289 17.02 53.7089 17.108 53.1969 17.108ZM56.8601 17V7.532H58.5041V12.812L58.4921 12.608C58.6761 12.28 58.9361 12.016 59.2721 11.816C59.6081 11.608 60.0201 11.504 60.5081 11.504C61.0041 11.504 61.4161 11.652 61.7441 11.948C62.0801 12.236 62.2521 12.612 62.2601 13.076V17H60.5801V13.7C60.5721 13.468 60.5081 13.284 60.3881 13.148C60.2761 13.004 60.0841 12.932 59.8121 12.932C59.5561 12.932 59.3321 13.016 59.1401 13.184C58.9481 13.352 58.8001 13.58 58.6961 13.868C58.5921 14.156 58.5401 14.488 58.5401 14.864V17H56.8601ZM35.14 20.168H40.66V21.848H36.88V23.852H40.156V25.532H36.88V29H35.14V20.168ZM41.1708 26.312C41.1708 25.776 41.2948 25.296 41.5428 24.872C41.7988 24.448 42.1548 24.116 42.6108 23.876C43.0668 23.628 43.5908 23.504 44.1828 23.504C44.7828 23.504 45.3028 23.628 45.7428 23.876C46.1828 24.116 46.5188 24.448 46.7508 24.872C46.9908 25.296 47.1108 25.776 47.1108 26.312C47.1108 26.848 46.9908 27.332 46.7508 27.764C46.5188 28.188 46.1828 28.524 45.7428 28.772C45.3028 29.02 44.7748 29.144 44.1588 29.144C43.5828 29.144 43.0668 29.032 42.6108 28.808C42.1628 28.584 41.8108 28.26 41.5548 27.836C41.2988 27.412 41.1708 26.904 41.1708 26.312ZM42.8628 26.324C42.8628 26.596 42.9188 26.844 43.0308 27.068C43.1428 27.284 43.2948 27.456 43.4868 27.584C43.6788 27.712 43.8948 27.776 44.1348 27.776C44.3988 27.776 44.6268 27.712 44.8188 27.584C45.0108 27.456 45.1588 27.284 45.2628 27.068C45.3668 26.844 45.4188 26.596 45.4188 26.324C45.4188 26.044 45.3668 25.796 45.2628 25.58C45.1588 25.364 45.0108 25.192 44.8188 25.064C44.6268 24.936 44.3988 24.872 44.1348 24.872C43.8948 24.872 43.6788 24.936 43.4868 25.064C43.2948 25.192 43.1428 25.364 43.0308 25.58C42.9188 25.796 42.8628 26.044 42.8628 26.324ZM48.0263 26.312C48.0263 25.776 48.1503 25.296 48.3983 24.872C48.6543 24.448 49.0103 24.116 49.4663 23.876C49.9223 23.628 50.4463 23.504 51.0383 23.504C51.6383 23.504 52.1583 23.628 52.5983 23.876C53.0383 24.116 53.3743 24.448 53.6063 24.872C53.8463 25.296 53.9663 25.776 53.9663 26.312C53.9663 26.848 53.8463 27.332 53.6063 27.764C53.3743 28.188 53.0383 28.524 52.5983 28.772C52.1583 29.02 51.6303 29.144 51.0143 29.144C50.4383 29.144 49.9223 29.032 49.4663 28.808C49.0183 28.584 48.6663 28.26 48.4103 27.836C48.1543 27.412 48.0263 26.904 48.0263 26.312ZM49.7183 26.324C49.7183 26.596 49.7743 26.844 49.8863 27.068C49.9983 27.284 50.1503 27.456 50.3423 27.584C50.5343 27.712 50.7503 27.776 50.9903 27.776C51.2543 27.776 51.4823 27.712 51.6743 27.584C51.8663 27.456 52.0143 27.284 52.1183 27.068C52.2223 26.844 52.2743 26.596 52.2743 26.324C52.2743 26.044 52.2223 25.796 52.1183 25.58C52.0143 25.364 51.8663 25.192 51.6743 25.064C51.4823 24.936 51.2543 24.872 50.9903 24.872C50.7503 24.872 50.5343 24.936 50.3423 25.064C50.1503 25.192 49.9983 25.364 49.8863 25.58C49.7743 25.796 49.7183 26.044 49.7183 26.324ZM57.4258 29.144C56.9378 29.144 56.5018 29.032 56.1178 28.808C55.7338 28.576 55.4298 28.244 55.2058 27.812C54.9898 27.38 54.8818 26.868 54.8818 26.276C54.8818 25.684 55.0018 25.18 55.2418 24.764C55.4818 24.348 55.8098 24.032 56.2258 23.816C56.6418 23.6 57.1138 23.492 57.6418 23.492C57.9778 23.492 58.2978 23.544 58.6018 23.648C58.9138 23.752 59.1738 23.912 59.3818 24.128V24.656V19.532H61.0498V29H59.3698V27.98L59.5018 28.34C59.2298 28.564 58.9258 28.756 58.5898 28.916C58.2538 29.068 57.8658 29.144 57.4258 29.144ZM57.9778 27.728C58.2018 27.728 58.3978 27.7 58.5658 27.644C58.7418 27.58 58.8938 27.492 59.0218 27.38C59.1578 27.26 59.2738 27.112 59.3698 26.936V25.652C59.3058 25.476 59.2058 25.328 59.0698 25.208C58.9418 25.08 58.7818 24.984 58.5898 24.92C58.4058 24.848 58.2018 24.812 57.9778 24.812C57.7298 24.812 57.4978 24.876 57.2818 25.004C57.0738 25.124 56.9058 25.292 56.7778 25.508C56.6498 25.724 56.5858 25.972 56.5858 26.252C56.5858 26.532 56.6498 26.784 56.7778 27.008C56.9058 27.232 57.0738 27.408 57.2818 27.536C57.4978 27.664 57.7298 27.728 57.9778 27.728ZM64.4821 29.108C64.0501 29.108 63.6461 29.032 63.2701 28.88C62.9021 28.728 62.5901 28.516 62.3341 28.244L63.0301 27.32C63.2861 27.552 63.5221 27.72 63.7381 27.824C63.9621 27.92 64.1621 27.968 64.3381 27.968C64.4741 27.968 64.5941 27.956 64.6981 27.932C64.8101 27.9 64.8981 27.856 64.9621 27.8C65.0261 27.736 65.0581 27.656 65.0581 27.56C65.0581 27.424 65.0021 27.316 64.8901 27.236C64.7861 27.156 64.6501 27.092 64.4821 27.044C64.3141 26.988 64.1341 26.932 63.9421 26.876C63.4621 26.724 63.1141 26.504 62.8981 26.216C62.6901 25.92 62.5861 25.6 62.5861 25.256C62.5861 24.992 62.6541 24.728 62.7901 24.464C62.9341 24.192 63.1581 23.968 63.4621 23.792C63.7741 23.608 64.1741 23.516 64.6621 23.516C65.1021 23.516 65.4741 23.56 65.7781 23.648C66.0821 23.736 66.3701 23.88 66.6421 24.08L66.0061 25.064C65.8541 24.944 65.6821 24.844 65.4901 24.764C65.3061 24.676 65.1341 24.628 64.9741 24.62C64.8301 24.612 64.7061 24.628 64.6021 24.668C64.5061 24.708 64.4301 24.76 64.3741 24.824C64.3181 24.888 64.2901 24.956 64.2901 25.028C64.2821 25.18 64.3381 25.3 64.4581 25.388C64.5861 25.476 64.7461 25.544 64.9381 25.592C65.1301 25.64 65.3181 25.696 65.5021 25.76C65.7581 25.84 65.9781 25.948 66.1621 26.084C66.3461 26.22 66.4861 26.384 66.5821 26.576C66.6861 26.76 66.7381 26.984 66.7381 27.248C66.7381 27.568 66.6541 27.872 66.4861 28.16C66.3261 28.44 66.0781 28.668 65.7421 28.844C65.4141 29.02 64.9941 29.108 64.4821 29.108Z" fill="#DBD6D6"/>
<path d="M14.3083 3.08833C16.0861 2.74178 17.914 2.74178 19.6917 3.08833" stroke="#F87700" stroke-linecap="round" stroke-linejoin="round"/>
<path d="M24.9333 5.25583C26.4382 6.27336 27.7322 7.57218 28.7442 9.08083" stroke="#F87700" stroke-linecap="round" stroke-linejoin="round"/>
<path d="M30.9116 14.3083C31.2582 16.086 31.2582 17.914 30.9116 19.6917" stroke="#F87700" stroke-linecap="round" stroke-linejoin="round"/>
<path d="M28.7442 24.9333C27.7267 26.4382 26.4278 27.7322 24.9192 28.7442" stroke="#F87700" stroke-linecap="round" stroke-linejoin="round"/>
<path d="M19.6917 30.9117C17.9139 31.2579 16.0861 31.2579 14.3083 30.9117" stroke="#F87700" stroke-linecap="round" stroke-linejoin="round"/>
<path d="M9.06669 28.7442C7.56181 27.7266 6.2678 26.4278 5.25586 24.9192" stroke="#F87700" stroke-linecap="round" stroke-linejoin="round"/>
<path d="M3.08828 19.6917C2.74173 17.914 2.74173 16.086 3.08828 14.3083" stroke="#F87700" stroke-linecap="round" stroke-linejoin="round"/>
<path d="M5.25586 9.06666C6.27339 7.56178 7.57221 6.26777 9.08086 5.25583" stroke="#F87700" stroke-linecap="round" stroke-linejoin="round"/>
<path d="M17.22 7H16.78C16.2496 7 15.7409 7.21071 15.3658 7.58579C14.9907 7.96086 14.78 8.46957 14.78 9V9.18C14.7796 9.53073 14.6871 9.87519 14.5115 10.1788C14.336 10.4825 14.0837 10.7346 13.78 10.91L13.35 11.16C13.046 11.3355 12.7011 11.4279 12.35 11.4279C11.9989 11.4279 11.654 11.3355 11.35 11.16L11.2 11.08C10.7411 10.8153 10.1958 10.7434 9.684 10.8803C9.17217 11.0172 8.73555 11.3515 8.47 11.81L8.25 12.19C7.98526 12.6489 7.91345 13.1942 8.05031 13.706C8.18717 14.2178 8.52154 14.6544 8.98 14.92L9.13 15.02C9.43228 15.1945 9.68362 15.4451 9.85905 15.7468C10.0345 16.0486 10.1279 16.391 10.13 16.74V17.25C10.1314 17.6024 10.0397 17.949 9.86405 18.2545C9.68844 18.5601 9.43521 18.8138 9.13 18.99L8.98 19.08C8.52154 19.3456 8.18717 19.7822 8.05031 20.294C7.91345 20.8058 7.98526 21.3511 8.25 21.81L8.47 22.19C8.73555 22.6485 9.17217 22.9828 9.684 23.1197C10.1958 23.2566 10.7411 23.1847 11.2 22.92L11.35 22.84C11.654 22.6645 11.9989 22.5721 12.35 22.5721C12.7011 22.5721 13.046 22.6645 13.35 22.84L13.78 23.09C14.0837 23.2654 14.336 23.5175 14.5115 23.8212C14.6871 24.1248 14.7796 24.4693 14.78 24.82V25C14.78 25.5304 14.9907 26.0391 15.3658 26.4142C15.7409 26.7893 16.2496 27 16.78 27H17.22C17.7504 27 18.2591 26.7893 18.6342 26.4142C19.0093 26.0391 19.22 25.5304 19.22 25V24.82C19.2204 24.4693 19.3129 24.1248 19.4885 23.8212C19.664 23.5175 19.9163 23.2654 20.22 23.09L20.65 22.84C20.954 22.6645 21.2989 22.5721 21.65 22.5721C22.0011 22.5721 22.346 22.6645 22.65 22.84L22.8 22.92C23.2589 23.1847 23.8042 23.2566 24.316 23.1197C24.8278 22.9828 25.2645 22.6485 25.53 22.19L25.75 21.8C26.0147 21.3411 26.0866 20.7958 25.9497 20.284C25.8128 19.7722 25.4785 19.3356 25.02 19.07L24.87 18.99C24.5648 18.8138 24.3116 18.5601 24.136 18.2545C23.9604 17.949 23.8686 17.6024 23.87 17.25V16.75C23.8686 16.3976 23.9604 16.051 24.136 15.7455C24.3116 15.4399 24.5648 15.1862 24.87 15.01L25.02 14.92C25.4785 14.6544 25.8128 14.2178 25.9497 13.706C26.0866 13.1942 26.0147 12.6489 25.75 12.19L25.53 11.81C25.2645 11.3515 24.8278 11.0172 24.316 10.8803C23.8042 10.7434 23.2589 10.8153 22.8 11.08L22.65 11.16C22.346 11.3355 22.0011 11.4279 21.65 11.4279C21.2989 11.4279 20.954 11.3355 20.65 11.16L20.22 10.91C19.9163 10.7346 19.664 10.4825 19.4885 10.1788C19.3129 9.87519 19.2204 9.53073 19.22 9.18V9C19.22 8.46957 19.0093 7.96086 18.6342 7.58579C18.2591 7.21071 17.7504 7 17.22 7Z" stroke="#F87700" stroke-linecap="round" stroke-linejoin="round"/>
<path d="M17 20C18.6569 20 20 18.6569 20 17C20 15.3431 18.6569 14 17 14C15.3431 14 14 15.3431 14 17C14 18.6569 15.3431 20 17 20Z" stroke="#F87700" stroke-linecap="round" stroke-linejoin="round"/>
<path d="M86.5 26.2001H80.5L77.5 35.2001L71.5 17.375L68.5 25.875L66 24.375" stroke="#DBD6D6" stroke-width="1.2" stroke-linecap="round" stroke-linejoin="round"/>
</svg>
